<svg width="24" height="24" fill="none" xmlns="http://www.w3.org/2000/svg"><path fill-rule="evenodd" clip-rule="evenodd" d="M15.979 1c.128 1.28-.336 2.543-1.014 3.47-.707.914-1.84 1.612-2.942 1.522-.144-1.232.414-2.543 1.04-3.342.707-.907 1.934-1.602 2.915-1.65Zm3.51 6.977c-.122.073-2.148 1.289-2.125 3.767.026 2.994 2.605 3.983 2.636 3.993-.015.07-.404 1.43-1.371 2.808-.808 1.215-1.655 2.403-2.999 2.423-.64.015-1.071-.17-1.52-.362-.47-.2-.958-.41-1.723-.41-.81 0-1.32.216-1.813.424-.426.18-.838.355-1.42.379-1.28.047-2.258-1.296-3.095-2.5-1.673-2.457-2.976-6.924-1.23-9.964.847-1.491 2.39-2.451 4.04-2.477.726-.015 1.423.267 2.034.513.467.189.884.357 1.225.357.3 0 .705-.161 1.177-.35.744-.296 1.655-.66 2.582-.562.635.019 2.44.252 3.605 1.96h-.002Z" fill="#fff"/></svg>