<svg xmlns="http://www.w3.org/2000/svg" width="30" height="30" fill="none"><path d="M8.837 19.3c0-.497-.346-.794-.956-.794-.249 0-.417.024-.506.048v1.598c.105.024.233.032.41.032.65 0 1.052-.329 1.052-.883zM12.613 18.523c-.273 0-.45.023-.554.047v3.54c.104.025.273.025.426.025 1.108.008 1.83-.602 1.83-1.894.008-1.124-.65-1.718-1.702-1.718z" fill="#5763B3"/><path d="M19.629 0H7.579a3.198 3.198 0 00-3.193 3.193V15h-.311c-.71 0-1.287.576-1.287 1.287v7.803c0 .71.576 1.286 1.287 1.286h.311v1.431A3.196 3.196 0 007.58 30H24.02a3.196 3.196 0 003.192-3.193V7.557L19.629 0zM6.163 17.695c.377-.064.907-.112 1.654-.112.755 0 1.293.144 1.654.433.345.273.578.723.578 1.253 0 .53-.176.98-.498 1.284-.417.394-1.035.57-1.758.57-.16 0-.305-.008-.418-.023v1.934H6.163v-5.34zm17.857 10.35H7.58a1.239 1.239 0 01-1.237-1.238v-1.43h15.326c.71 0 1.287-.576 1.287-1.287v-7.803c0-.711-.577-1.287-1.287-1.287H6.343V3.193c0-.68.555-1.236 1.236-1.236l11.318-.011v4.183c0 1.222.992 2.214 2.214 2.214l4.098-.012.047 18.476c0 .683-.555 1.238-1.236 1.238zM10.83 23.01v-5.315c.45-.072 1.036-.112 1.655-.112 1.027 0 1.694.184 2.216.578.562.417.915 1.083.915 2.04 0 1.035-.377 1.75-.9 2.191-.57.474-1.437.698-2.496.698a10.6 10.6 0 01-1.39-.08zm8.763-3.147v.995H17.65v2.177h-1.228v-5.412h3.308v1.003h-2.08v1.237h1.943z" fill="#5763B3"/></svg>