<svg width="24" height="24" fill="none" xmlns="http://www.w3.org/2000/svg"><path fill-rule="evenodd" clip-rule="evenodd" d="m15.866 8.445-9.861-5.11c-.548-.283-1.062-.38-1.5-.316l8.505 8.169 2.856-2.743ZM3 5.434c0-.575.248-1.466.495-1.805l8.692 8.35-8.712 8.368c-.065-.092-.13-.163-.19-.228C3.126 19.945 3 19.807 3 19.4V5.434Zm3.003 15.23c-.563.293-1.09.387-1.537.31l8.544-8.206 2.874 2.761-9.88 5.135Zm13.802-7.173-2.853 1.483-3.12-2.997 3.102-2.98 2.87 1.487c1.594.826 1.595 2.18.001 3.007Z" fill="#fff"/></svg>