<svg width="36" height="36" fill="none" xmlns="http://www.w3.org/2000/svg"><path d="M32.836 8.578a3.168 3.168 0 00-3.164 3.164v6.534a3.59 3.59 0 00-5.358.73l-3.974 6.043a7.364 7.364 0 00-1.215 4.056v5.84c0 .583.472 1.055 1.055 1.055h11.25c.582 0 1.054-.472 1.054-1.055v-4.008l3.435-8.242c.053-.129.081-.267.081-.406V11.742a3.168 3.168 0 00-3.164-3.164zm1.055 13.5l-3.435 8.243a1.056 1.056 0 00-.081.406v3.164h-9.14v-4.786c0-1.032.3-2.034.867-2.897l3.974-6.043a1.48 1.48 0 012.515 1.55l-3.697 6.37a1.055 1.055 0 00.91 1.587h.019c.364 0 .719-.189.914-.527l4.9-8.434c.095-.161.144-.344.144-.531v-8.438a1.056 1.056 0 012.11 0v10.336zM11.686 19.006a3.59 3.59 0 00-5.358-.73v-6.534a3.168 3.168 0 00-3.164-3.164A3.168 3.168 0 000 11.742V22.29c0 .14.028.277.081.406l3.435 8.242v4.008c0 .583.472 1.055 1.054 1.055h11.25c.583 0 1.055-.472 1.055-1.055v-5.84c0-1.445-.42-2.848-1.214-4.056l-3.975-6.043zm3.08 14.885H5.625v-3.164c0-.14-.028-.277-.081-.406l-3.435-8.243V11.742a1.056 1.056 0 012.11 0v8.438c0 .186.05.37.143.531l4.9 8.434c.196.338.55.527.915.527h.02a1.055 1.055 0 00.91-1.586l-3.698-6.37a1.48 1.48 0 01.541-2.019 1.48 1.48 0 011.974.468l3.974 6.043a5.26 5.26 0 01.867 2.897v4.786zM23.927 16.405a10.843 10.843 0 002.159-6.52V3.868c0-.582-.472-1.054-1.055-1.054-1.332 0-2.53-.741-3.127-1.933l-.148-.297A1.055 1.055 0 0020.812 0h-5.625c-.399 0-.764.226-.943.583l-.148.297a3.477 3.477 0 01-3.127 1.933c-.583 0-1.055.472-1.055 1.054v6.019c0 2.366.747 4.62 2.16 6.519a10.844 10.844 0 005.623 3.941 1.053 1.053 0 00.606 0 10.844 10.844 0 005.624-3.941zM18 18.229a8.754 8.754 0 01-5.977-8.343V4.824a5.564 5.564 0 003.806-2.715h4.342a5.565 5.565 0 003.806 2.715v5.062A8.754 8.754 0 0118 18.229z" fill="#55BB06"/><path d="M20.237 7.46l-3.231 3.233-1.243-1.244a1.055 1.055 0 00-1.492 1.492l1.989 1.989a1.05 1.05 0 001.491 0l3.978-3.978a1.055 1.055 0 00-1.492-1.491z" fill="#55BB06"/></svg>