<svg width="36" height="36" fill="none" xmlns="http://www.w3.org/2000/svg"><path d="M18 0C10.256 0 3.955 6.282 3.955 14.005v2.582h2.422v-2.582C6.377 7.618 11.59 2.421 18 2.421c6.409 0 11.623 5.214 11.623 11.623v2.542h2.422v-2.542C32.045 6.3 25.744 0 18 0zM29.623 26.637v.12a4.848 4.848 0 01-4.843 4.844h-3.35v2.422h3.35c4.006 0 7.265-3.26 7.265-7.265v-.121h-2.422z" fill="#55BB06"/><path d="M19.332 29.139H18a3.434 3.434 0 00-3.43 3.43A3.434 3.434 0 0018 36h1.332a3.435 3.435 0 003.43-3.43 3.434 3.434 0 00-3.43-3.431zm0 4.44H18a1.035 1.035 0 01-1.009-1.01c0-.537.471-1.009 1.009-1.009h1.332c.537 0 1.009.472 1.009 1.01a.998.998 0 01-1.01 1.008zM5.085 17.798h2.623v-2.421H5.085a3.637 3.637 0 00-3.632 3.632v5.247a3.636 3.636 0 003.632 3.632h2.583v-2.422H5.085c-.667 0-1.21-.543-1.21-1.21v-5.247c0-.668.543-1.21 1.21-1.21z" fill="#55BB06"/><path d="M11.946 14.57H7.71a1.21 1.21 0 00-1.211 1.21v11.664a1.21 1.21 0 001.2 1.21l4.237.041h.011a1.21 1.21 0 001.21-1.21V15.78a1.21 1.21 0 00-1.21-1.21zm-1.21 11.692l-1.817-.018v-9.253h1.816v9.27zM30.915 15.377h-2.623V17.8h2.623c.667 0 1.21.542 1.21 1.21v5.247c0 .667-.543 1.21-1.21 1.21h-2.583v2.422h2.583a3.636 3.636 0 003.632-3.632v-5.247a3.636 3.636 0 00-3.632-3.632z" fill="#55BB06"/><path d="M28.332 14.57h-4.278a1.21 1.21 0 00-1.21 1.21v11.664c0 .669.541 1.21 1.21 1.21h4.278a1.21 1.21 0 001.21-1.21V15.78a1.21 1.21 0 00-1.21-1.21zm-1.21 11.663h-1.857v-9.242h1.856v9.242z" fill="#55BB06"/></svg>