<svg width="32" height="32" fill="none" xmlns="http://www.w3.org/2000/svg"><path clip-rule="evenodd" d="M12.36 8.727h7.28a3.632 3.632 0 013.632 3.633v7.28a3.632 3.632 0 01-3.633 3.632H12.36a3.632 3.632 0 01-3.633-3.633V12.36a3.633 3.633 0 013.633-3.633z" stroke="#DBDBDB" stroke-width="1.5" stroke-linecap="round" stroke-linejoin="round"/><path d="M20 11.933a.067.067 0 00-.067.067c0 .036.03.067.067.067.037 0 .067-.03.067-.067a.068.068 0 00-.067-.067M17.885 14.115a2.666 2.666 0 11-3.77 3.77 2.666 2.666 0 013.77-3.77" stroke="#DBDBDB" stroke-width="1.5" stroke-linecap="round" stroke-linejoin="round"/><path clip-rule="evenodd" d="M10 4h12.005A5.995 5.995 0 0128 9.995v12.012A5.995 5.995 0 0122.005 28H9.995A5.995 5.995 0 014 22.005V10a6 6 0 016-6v0z" stroke="#DBDBDB" stroke-width="1.5" stroke-linecap="round" stroke-linejoin="round"/></svg>