<svg width="190" height="40" fill="none" xmlns="http://www.w3.org/2000/svg"><path d="M112.792 10.098v1.289c0 .644.637 1.288 1.275 1.288h1.911l-4.46 5.156h-2.549V3.653h-6.373v1.29c0 .617.651 1.288 1.275 1.288h2.549v21.911h-3.824v2.578h10.196v-2.578h-3.823V20.41h1.274c.939 0 1.303.09 1.772.842l4.19 7.168c.94 1.623 1.6 2.301 3.597 2.301h1.911v-2.578h-1.274c-1.096 0-1.336-.119-1.766-.792l-3.916-6.654c-.784-1.386-1.332-1.584-1.371-1.584l5.778-6.436h2.549v-2.578h-8.921zM138.282 24.276c-.577 0-1.275.664-1.275 1.288v2.578h-10.196l12.745-15.466v-2.578h-15.931v6.444h1.275c.637 0 1.274-.671 1.274-1.289v-2.578h9.559l-12.745 15.467v2.578h16.568v-6.444h-1.274zM97.498 28.787v1.933h3.186v-3.222h-1.911c-.618 0-1.275.644-1.275 1.289z" fill="#55BB06"/><path d="M39.51 6.876V4.942c0-.644.656-1.289 1.274-1.289h1.911v3.223H39.51zM70.097 4.942v5.156h7.01s-.758.744-1.574 1.795c-.473.607-.904.783-1.613.783h-3.823v10.31c0 4.217 2.428 5.156 3.823 5.156s1.912-.644 1.912-.644v2.578s-.423.644-1.912.644c-1.489 0-6.372-.858-6.372-7.733V12.676h-2.55c-.636 0-1.274-.658-1.274-1.29v-1.288h3.824V4.942h2.549z" fill="#fff"/><path fill-rule="evenodd" clip-rule="evenodd" d="M15.294 17.187c0-5.351-2.638-7.09-7.01-7.09S.94 12.519.94 12.519l1.193 1.515a.773.773 0 001 .194c.97-.57 3.297-1.552 5.152-1.552 2.717 0 4.46.79 4.46 4.512v.644H11.47C7.546 17.831 0 18.465 0 24.92c0 4.08 3.46 6.444 6.372 6.444 3.597 0 4.81-1.442 5.792-2.61.168-.2.33-.393.495-.568 0 1.366.966 2.534 2.635 2.534h3.186v-2.578h-2.549c-.433 0-.637-.207-.637-.644V17.187zm-2.55 3.866c0 3.485-2.452 7.734-6.372 7.734-2.717 0-3.823-1.808-3.823-3.867 0-4.089 7.33-4.511 8.921-4.511h1.275v.644zM55.44 10.098c4.372 0 7.01 1.738 7.01 7.089v10.31c0 .438.204.645.637.645h2.55v2.578H62.45c-1.669 0-2.635-1.168-2.635-2.534-.165.175-.326.367-.495.568-.983 1.168-2.195 2.61-5.791 2.61-2.912 0-6.373-2.365-6.373-6.444 0-6.455 7.546-7.089 11.47-7.089h1.275v-.644c0-3.723-1.744-4.512-4.46-4.512-1.856 0-4.184.982-5.152 1.552a.773.773 0 01-1.001-.194l-1.193-1.515s2.973-2.42 7.345-2.42zM53.53 28.787c3.92 0 6.372-4.248 6.372-7.734v-.644h-1.275c-1.59 0-8.92.422-8.92 4.511 0 2.059 1.105 3.867 3.822 3.867zM85.39 10.098c4.373 0 7.01 1.738 7.01 7.089v10.31c0 .438.205.645.637.645h2.55v2.578H92.4c-1.67 0-2.634-1.168-2.634-2.534-.166.175-.327.367-.495.568-.983 1.168-2.196 2.61-5.792 2.61-2.912 0-6.373-2.365-6.373-6.444 0-6.455 7.546-7.089 11.47-7.089h1.275v-.644c0-3.723-1.744-4.512-4.46-4.512-1.856 0-4.183.982-5.152 1.552a.773.773 0 01-1.001-.194l-1.193-1.515s2.974-2.42 7.346-2.42zM83.48 28.787c3.92 0 6.372-4.248 6.372-7.734v-.644h-1.274c-1.591 0-8.922.422-8.922 4.511 0 2.059 1.107 3.867 3.824 3.867z" fill="#fff"/><path d="M42.695 28.142V10.098H29.313v2.577H32.5l-5.098 14.178-5.098-14.178h2.55v-2.577h-9.56s.548.744 1.365 1.794c.472.608 1.113.784 1.822.784h1.274l6.373 18.044h2.549l6.372-18.044h5.098v15.466h-1.911c-.638 0-1.275.672-1.275 1.29v1.288h9.559v-2.578h-3.824z" fill="#fff"/><path d="M162.412.026s2.186-.177 3.208.391c.961.535 10.96 13.92 12.562 16.078.201.27.517.448.874.462 5.884.217 10.61 1.17 10.918 2.86A.598.598 0 01190 20a.598.598 0 01-.026.183c-.308 1.69-5.034 2.643-10.918 2.86a1.143 1.143 0 00-.874.462c-1.602 2.158-11.601 15.543-12.562 16.078-1.022.568-3.208.39-3.208.39s4.794-10.41 5.463-12.648c.564-1.92.74-3.767.67-4.513-5.216-.284-9.939-.71-12.124-1.101l-4.194 4.974s-.176.213-.564.249c-.353.035-1.833.035-1.833.035l1.727-6.324s-.564-.213-.951-.356c-.318-.106-.353-.254-.353-.289 0-.035.035-.183.353-.29.387-.142.951-.355.951-.355l-1.727-6.324s1.48 0 1.833.035c.388.036.564.249.564.249l4.194 4.974c2.185-.39 6.908-.817 12.124-1.101.07-.746-.106-2.594-.67-4.513-.669-2.238-5.463-12.649-5.463-12.649z" fill="#55BB06"/></svg>