<svg width="36" height="36" fill="none" xmlns="http://www.w3.org/2000/svg"><path d="M34.594 8.965h-1.266V7.699a1.406 1.406 0 10-2.812 0v1.266H29.25a1.406 1.406 0 100 2.812h1.266v1.266a1.406 1.406 0 002.812 0v-1.266h1.266a1.406 1.406 0 100-2.812zM22.177 17.524a9.025 9.025 0 003.522-7.153c0-4.982-4.053-9.035-9.035-9.035S7.63 5.389 7.63 10.37c0 2.908 1.381 5.5 3.522 7.153C4.8 19.744 0 25.834 0 33.258c0 .776.63 1.406 1.406 1.406h30.516c.777 0 1.406-.63 1.406-1.406 0-7.425-4.805-13.516-11.15-15.734zm-11.736-7.153a6.23 6.23 0 016.223-6.223 6.23 6.23 0 016.223 6.223 6.23 6.23 0 01-6.223 6.223 6.23 6.23 0 01-6.223-6.223zm-7.558 21.48c.707-6.98 6.618-12.445 13.781-12.445s13.074 5.466 13.78 12.446H2.885z" fill="#55BB06"/></svg>