<svg width="18" height="24" fill="none" xmlns="http://www.w3.org/2000/svg"><mask id="a" style="mask-type:alpha" maskUnits="userSpaceOnUse" x="0" y="0" width="18" height="17"><path fill-rule="evenodd" clip-rule="evenodd" d="M17.013 16.212V0H.986v16.212h16.027Z" fill="#fff"/></mask><g mask="url(#a)"><path fill-rule="evenodd" clip-rule="evenodd" d="M5.421 8.549c.217 1.805 1.736 3.204 3.579 3.204 1.992 0 3.606-1.633 3.606-3.648 0-2.014-1.614-3.648-3.606-3.648-1.632 0-3.01 1.097-3.454 2.602l-4.35-1.778c.252-.34.655-1.037.879-1.363.323-.472.534-.746 1.087-1.363.196-.22.412-.42.635-.613a7.071 7.071 0 0 1 1.377-.96v.001A7.905 7.905 0 0 1 9-.001c4.426 0 8.014 3.63 8.014 8.106 0 4.477-3.588 8.106-8.014 8.106-4.425 0-8.013-3.629-8.013-8.106 0-.14.003-.277.01-.415l4.425.859Z" fill="#EE3955"/></g><path fill-rule="evenodd" clip-rule="evenodd" d="M.89 13.091V7.616l4.563.852v8.08c0 1.312-.288 3.192-1.105 4.51C2.526 24 0 24 0 24s.798-.864.89-2.405c.117-1.966 0-8.504 0-8.504Z" fill="#EE3955"/></svg>