<svg xmlns="http://www.w3.org/2000/svg" width="24" height="24" fill="none"><path fill-rule="evenodd" clip-rule="evenodd" d="M6.462 10.69L0 5.844 6.462 1v2.881C10.695 3.881 14 7.611 14 12c-.62-1.19-3.098-4.628-7.538-4.33v3.02zm.447.894a1 1 0 00.553-.895v-.535l1.267-1.267c2.485.692 3.944 2.73 4.384 3.575A1 1 0 0015 12c0-2.57-1.028-4.974-2.717-6.667l.24-.241.293.292a.489.489 0 00.692-.691l-.293-.293 2.114-2.114a.978.978 0 011.383 0L19.125 4.7a1.53 1.53 0 002.164 2.164l2.425 2.425a.978.978 0 010 1.383L21.6 12.785l-.294-.294a.49.49 0 00-.692.691l.294.294-10.237 10.238a.978.978 0 01-1.383 0L6.795 21.22a1.603 1.603 0 10-2.252-2.252l-2.257-2.257a.978.978 0 010-1.383l3.74-3.74a1 1 0 00.883-.005zm8.017-5.473a.489.489 0 10-.692.691l.709.709a.489.489 0 10.691-.692l-.709-.708zm2.126 2.126a.489.489 0 00-.691.692l.709.709a.489.489 0 10.691-.692l-.709-.709zm2.127 2.127a.49.49 0 00-.692.691l.71.71a.489.489 0 10.69-.692l-.708-.71z" fill="#55BB06"/></svg>