<svg width="32" height="32" fill="none" xmlns="http://www.w3.org/2000/svg"><path clip-rule="evenodd" d="M10 4h12.005A5.995 5.995 0 0128 9.995v12.012A5.995 5.995 0 0122.005 28H9.995A5.995 5.995 0 014 22.005V10a6 6 0 016-6v0z" stroke="#DBDBDB" stroke-width="1.5" stroke-linecap="round" stroke-linejoin="round"/><path d="M23.483 14.067a.75.75 0 10-1.5 0h1.5zM8.94 20.024a.75.75 0 10-1.211.885l1.21-.885zm-.723-.298a.75.75 0 00.234 1.482l-.234-1.482zm2.517-.06l.239.712a.75.75 0 00.295-1.239l-.534.528zm-.8-9.6l.661-.354a.75.75 0 00-1.27-.082l.61.437zm4.8 4l-.177.73a.75.75 0 00.927-.705l-.75-.024zm7.2-2.4l-.626.414a.75.75 0 00.626.337v-.75zm2.4 0l.624.417a.75.75 0 00-.624-1.166v.75zm-2.224 1.985a.75.75 0 001.248.832l-1.248-.832zm-.126.416c0 2.662-.76 4.87-2.112 6.403-1.342 1.522-3.328 2.447-5.938 2.447v1.5c2.991 0 5.405-1.075 7.063-2.954 1.647-1.867 2.487-4.458 2.487-7.396h-1.5zm-8.05 8.85c-1.455 0-2.422-.376-3.147-.89-.749-.529-1.285-1.233-1.847-2.003l-1.211.885c.555.76 1.219 1.655 2.191 2.343.995.705 2.27 1.165 4.014 1.165v-1.5zm-5.483-1.71a.764.764 0 00.115-.027l.03-.01.083-.026.278-.092.825-.276.82-.274.268-.09.076-.025.02-.007a.215.215 0 01.005-.002h.001l-.238-.711-.238-.712-.002.001-.005.002-.02.007-.075.025a372.598 372.598 0 01-1.088.364 501.781 501.781 0 01-1.17.39l-.015.004.007-.002.016-.005a.84.84 0 01.073-.015l.234 1.482zm2.817-2.068c-2.41-2.436-2.59-6.03-.724-8.636l-1.22-.873c-2.283 3.188-2.057 7.598.877 10.564l1.067-1.055zm-1.994-8.717c1.057 1.967 3.047 3.83 5.283 4.373l.355-1.457c-1.722-.419-3.406-1.932-4.317-3.626l-1.321.71zm6.21 3.67c.032-.992.382-1.806.931-2.367.546-.557 1.329-.908 2.32-.908v-1.5c-1.366 0-2.545.493-3.392 1.359-.842.86-1.315 2.046-1.358 3.366l1.499.05zm3.25-3.275c.705 0 1.216.133 1.604.34.387.207.699.511.97.923l1.252-.826c-.38-.577-.866-1.073-1.515-1.42-.648-.345-1.412-.517-2.31-.517v1.5zm3.2 1.6h2.4v-1.5h-2.4v1.5zm1.776-1.166l-1.6 2.4 1.248.832 1.6-2.4-1.248-.832z" fill="#DBDBDB"/></svg>