<svg width="36" height="36" fill="none" xmlns="http://www.w3.org/2000/svg"><g clip-path="url(#clip0)" fill="#55BB06"><path d="M34.941 6.782c-6.885 0-6.726-.07-7.553.206l-2.603.866-2.603-.866c-.869-.29.515-.206-21.123-.206C.474 6.782 0 7.256 0 7.841v20.33c0 .584.474 1.058 1.059 1.058h19.666c1.065 0 1.488-.216 4.06-1.072 2.498.831 2.987 1.072 4.06 1.072h6.096c.585 0 1.059-.474 1.059-1.059V7.84c0-.584-.474-1.058-1.059-1.058zm-1.059 20.33c-5.4 0-5.368.054-6.003-.157-.007 0 .115.038-2.044-.68v-1.493a1.059 1.059 0 00-2.117 0v1.498c-2.103.7-2.338.831-2.993.831H2.118V8.9c20.467 0 18.973-.044 19.395.097l2.205.734v1.498a1.059 1.059 0 002.117 0V9.737l2.222-.74c.4-.133.164-.097 5.825-.097V27.11z"/><path d="M20.259 22.03H5.576a1.059 1.059 0 100 2.117H20.26a1.059 1.059 0 000-2.118zM24.776 14.688c-.584 0-1.058.474-1.058 1.059v4.517a1.059 1.059 0 002.117 0v-4.517c0-.585-.474-1.06-1.059-1.06zM8.118 15.253c.2.266.513.423.847.423h3.444l-.883 1.103a1.059 1.059 0 001.654 1.323l1.94-2.426h3.445a1.059 1.059 0 000-2.118h-9.07l-1.377-1.835a1.059 1.059 0 00-1.695 1.27l1.695 2.26zM30.424 23.582c.584 0 1.058-.474 1.058-1.059v-9.035a1.059 1.059 0 10-2.117 0v9.035c0 .585.474 1.059 1.059 1.059z"/></g><defs><clipPath id="clip0"><path fill="#fff" d="M0 0h36v36H0z"/></clipPath></defs></svg>